<?xml version="1.0" encoding="UTF-8"?>
<svg width="828"
     height="162"
	 viewBox="0 0 485 95"
     xmlns="http://www.w3.org/2000/svg">
  <g transform="translate(137.3603,-101.74574)">
    <path style="fill:#C00040;stroke-width:0.264583;stroke:#300010"
          d="m 118.70097,182.30131 c 1.57045,-7.38642 2.85804,-13.53024 2.86135,-13.65294 0.003,-0.12269 -0.55957,0.25027 -1.25078,0.82881 -7.73666,6.47537 -19.31586,4.6457 -19.38478,-3.06305 -0.0101,-1.13095 -0.44341,-1.13177 -1.190878,-0.002 -5.975834,9.03009 -18.717567,9.71364 -21.411586,1.14865 -0.463992,-1.47514 -0.463992,-1.47514 -1.27953,-0.34669 -3.03004,4.19264 -7.050114,6.34823 -11.797091,6.32568 -9.085125,-0.0432 -12.71356,-5.63467 -10.404769,-16.03399 2.14058,-9.64168 -0.647808,-12.66834 -7.351402,-7.97961 -1.837973,1.28555 -1.64701,0.59565 -6.105483,22.05752 -0.26498,1.27554 -13.21563,2.38967 -13.21563,1.13693 0,-0.4585 12.93093,-60.92116 13.055663,-61.04589 0.120833,-0.12083 13.231786,-1.95098 13.288237,-1.8549 0.01609,0.0274 -1.48546,7.13402 -3.336779,15.79251 -1.851319,8.65849 -3.340074,15.77268 -3.308345,15.80931 0.03173,0.0366 3.976624,-3.02547 8.766434,-6.80466 8.708747,-6.87115 8.708747,-6.87115 13.184616,-6.87951 2.461726,-0.005 4.426257,0.0376 4.365625,0.0938 -0.06063,0.0562 -4.098837,2.87079 -8.973785,6.25472 -4.874948,3.38392 -8.900419,6.18274 -8.945491,6.21958 -0.04507,0.0368 0.933368,0.004 2.174314,-0.0738 8.391445,-0.52352 11.907988,5.37068 9.703123,16.26375 -1.369952,6.76821 -0.930426,8.27811 2.408473,8.27379 5.432078,-0.007 6.599531,-2.38044 10.687896,-21.72836 1.671905,-7.91219 3.103298,-14.59415 3.180876,-14.84881 0.124677,-0.40927 13.069975,-0.78939 13.069975,-0.38378 0,0.0436 -1.475534,7.0385 -3.278965,15.54427 -3.84361,18.12813 -3.960627,19.04727 -2.626765,20.63248 2.147469,2.55212 6.477952,-0.24896 8.438807,-5.45848 0.49109,-1.30469 6.72734,-29.68283 6.72734,-30.61282 0,-0.10158 2.91703,-0.18469 6.48229,-0.18469 5.26415,0 6.48229,0.0671 6.48229,0.35703 0,0.19637 -0.54182,2.90504 -1.20406,6.01927 -6.77811,31.87499 -6.70342,30.66537 -1.8934,30.66537 5.2078,0 6.32365,-2.46909 10.91111,-24.14323 l 3.40201,-16.07344 h 6.5187 6.51867 l -0.70512,3.30729 c -0.38782,1.81901 -0.6645,3.30729 -0.61486,3.30729 0.0497,0 0.59163,-0.36317 1.20438,-0.80705 4.18537,-3.03185 10.38395,-3.75631 14.50073,-1.69477 10.85532,5.43597 5.5241,36.33359 -7.39145,42.83775 -5.67391,2.85734 -13.20618,2.76544 -15.9715,-0.19487 -0.92771,-0.99311 -0.53189,-2.26846 -3.17426,10.22763 -1.25764,5.94741 -2.32193,10.84699 -2.36513,10.88794 -0.0432,0.041 -2.93603,0.75016 -6.42853,1.57602 -3.4925,0.82585 -6.53627,1.55299 -6.76395,1.61587 -0.33206,0.0917 0.15085,-2.54212 2.44141,-13.31553 z m 23.93465,-17.41743 c 8.33101,-3.98821 12.71113,-29.82387 5.20697,-30.71263 -2.23901,-0.26518 -4.47754,0.92398 -6.16596,3.27548 -1.1571,1.61153 -6.17595,25.84955 -5.57559,26.9268 0.87501,1.5701 3.83755,1.80148 6.53458,0.51035 z m 68.09726,9.63904 c -6.25586,-0.64666 -8.78697,-4.40297 -7.0172,-10.41397 0.59383,-2.01686 0.46943,-1.96005 1.75295,-0.80047 6.54642,5.91432 13.42961,0.18478 14.49157,-12.06273 0.89286,-10.29768 -2.09979,-14.78576 -9.85922,-14.78576 -3.79153,0 -2.906,-2.24452 -7.3328,18.58618 l -3.80926,17.92472 -6.83627,7.9e-4 c -6.83628,8e-4 -6.83628,8e-4 -6.66195,-0.99139 0.0959,-0.5457 2.99363,-14.1485 6.43941,-30.22844 l 6.26506,-29.23626 4.46977,-0.59217 c 2.45838,-0.32569 5.62666,-0.75126 7.04062,-0.94571 2.31775,-0.31873 2.561,-0.31255 2.47075,0.0628 -0.19465,0.80945 -4.32384,20.49093 -4.32384,20.6093 0,2.34178 8.56337,-2.54855 11.16102,-6.37379 9.58837,-14.11948 -4.95432,-24.87813 -21.70713,-16.0589 -8.77917,4.62163 -14.00268,16.6487 -10.85519,24.99391 0.27442,0.72761 0.499,1.36978 0.49908,1.42706 0,0.2864 -3.88458,-0.31026 -5.21875,-0.80152 -7.44931,-2.74291 -6.17857,-14.51389 2.44843,-22.68006 13.43443,-12.716805 38.45867,-14.07363 45.46724,-2.46526 4.00939,6.64078 1.74432,15.64189 -5.19297,20.63634 -2.12641,1.53087 -2.14384,1.62295 -0.41021,2.16508 8.08117,2.52707 11.11109,11.27111 8.11334,23.41419 -3.20601,12.98675 -10.9198,19.69879 -21.39445,18.61606 z m -279.739316,-0.51633 c -4.0029,-0.94257 -6.39254,-5.17877 -5.881767,-10.42681 0.316928,-3.25636 1.415298,-8.99771 3.695046,-19.31458 5.816248,-26.3211 5.420389,-29.1 -3.749098,-26.31846 -2.871832,0.87116 -7.218603,3.4312 -7.218603,4.25141 0,1.20461 -1.545553,8.30214 -3.96988,18.23059 -4.161216,17.0416 -5.025953,21.81687 -5.025953,27.7544 0,4.32524 -1.026912,4.8274 -10.692329,5.2286 l -4.21004,0.17476 0.17291,-2.88669 c 0.30911,-5.16045 1.57646,-12.26879 4.4536,-24.9794 5.552702,-24.53072 5.578825,-28.55744 0.18421,-28.39691 -4.7447,0.14119 -11.04217,3.66679 -11.58722,6.48703 -0.17743,0.91809 -1.4537,6.49128 -2.83615,12.38488 -4.14923,17.68872 -6.36177,28.53343 -6.86602,33.65351 -0.24639,2.50184 -2.5202,3.25691 -10.76357,3.5743 -4.1769,0.16081 -4.1769,0.16081 -4.00657,-1.00486 0.3553,-2.4316 2.52758,-13.13508 4.34443,-21.40629 6.96477,-31.70726 7.21387,-34.47762 3.59019,-39.92842 -2.08562,-3.13722 -1.8137,-3.39566 4.48219,-4.26019 11.85547,-1.62795 13.76184,-0.85396 13.75456,5.58436 l -0.004,3.3322 2.04274,-1.66271 c 12.6356,-10.28483 23.734926,-10.30006 26.513176,-0.0364 l 0.473263,1.74837 2.007131,-1.595 c 11.426778,-9.08044 21.126453,-10.41625 25.84867,-3.55981 3.222665,4.67917 2.728989,11.60279 -2.237616,31.38175 -3.93582,15.67397 -4.553452,24.3428 -1.659816,23.29645 5.421196,-1.96033 6.915037,-3.08567 6.763089,-5.09474 -0.740032,-9.78494 4.755777,-23.06696 11.884329,-28.7215 6.582683,-5.22155 17.354486,-5.40855 18.372405,-0.31896 0.223409,1.11705 0.511159,0.59519 0.913646,-1.65699 0.320206,-1.79176 0.320206,-1.79176 6.864291,-1.79176 6.5440853,0 6.5440853,0 6.3247298,0.99219 -7.6268128,34.49775 -7.8077618,36.57864 -3.1807838,36.57864 5.1328823,0 6.3635467,-2.64114 10.60250235,-22.75416 1.61014835,-7.63985 2.99071235,-14.09899 3.06791775,-14.35365 0.1351624,-0.44582 13.0692999,-0.77036 13.0692999,-0.32793 0,0.0743 -0.242268,1.22274 -0.538371,2.55207 -0.698053,3.13385 -0.720651,3.11607 1.596704,1.25649 7.413125,-5.9487 14.670707,-4.49754 14.6812,2.93552 0.0053,3.78682 -1.977242,6.10911 -5.541314,6.49079 -2.756919,0.29524 -3.497601,-0.34941 -4.569703,-3.97725 -0.792409,-2.68139 -3.314102,-2.33905 -7.268819,0.98681 -0.58366,0.49085 -7.8846968,32.67986 -7.8846968,34.76228 0,0.0561 -2.9170312,0.10195 -6.48229156,0.10195 -5.01440184,0 -6.48018814,-0.0749 -6.47299674,-0.33073 0.00511,-0.1819 0.1795224,-1.10464 0.3875802,-2.05052 0.2080577,-0.94589 0.3824684,-1.81046 0.3875801,-1.92127 0.00511,-0.11082 -0.6157833,0.30631 -1.3797676,0.92694 -7.6612066,6.22369 -17.0181956,5.0264 -18.9127236,-2.42001 l -0.468005,-1.83949 -1.526382,1.8277 c -3.85419,4.61505 -7.26291,6.405 -12.143054,6.37643 -4.601038,-0.0269 -8.450662,-2.34479 -10.190805,-6.13586 -0.699786,-1.52456 -0.699786,-1.52456 -3.104148,0.38983 -6.103985,4.8601 -12.0705,7.16113 -16.105147,6.21108 z m 38.62489,-10.27245 c 3.088886,-2.12163 3.66204,-3.60231 6.429484,-16.60988 2.655784,-12.48275 2.642769,-13.05628 -0.314331,-13.85254 -4.970213,-1.33834 -10.177533,5.54198 -12.800263,16.91272 -2.576714,11.17121 0.643995,17.6991 6.68511,13.5497 z m 274.497856,9.71877 c -6.20757,-0.69792 -9.02784,-6.17776 -7.6005,-14.76792 0.46332,-2.7883 9.86076,-46.84439 10.02787,-47.01148 0.12017,-0.12018 13.23131,-1.94958 13.28703,-1.85394 0.0159,0.0274 -2.32936,11.06308 -5.21181,24.52375 -5.378,25.11448 -5.81938,27.67385 -5.02934,29.16183 1.2727,2.397 6.15085,1.49584 8.67477,-1.60253 1.9912,-2.44439 2.27097,-3.39609 5.52267,-18.78613 1.68055,-7.95394 3.11904,-14.67007 3.19667,-14.92473 0.12475,-0.40927 13.07005,-0.78939 13.07005,-0.38378 0,0.0436 -1.49366,7.09804 -3.31926,15.67656 -4.43618,20.8458 -4.43402,21.28587 0.10475,21.28587 5.54414,0 7.00837,-2.70829 10.62414,-19.65068 1.46444,-6.86181 2.73097,-12.74845 2.81453,-13.08142 0.14509,-0.57809 0.0835,-0.6054 -1.36502,-0.6054 -1.51696,0 -1.51696,0 -1.34455,-0.8599 0.0948,-0.47294 0.24397,-1.30638 0.33147,-1.85208 0.15906,-0.99219 0.15906,-0.99219 1.71275,-0.99219 0.85452,0 1.55369,-0.0544 1.55369,-0.12096 0,-0.24661 2.63739,-12.12945 2.70642,-12.19388 0.19558,-0.18251 12.93958,-1.7607 13.08042,-1.61985 0.13845,0.13845 -2.39221,12.634 -2.75514,13.60396 -0.0939,0.25093 0.52147,0.33073 2.5504,0.33073 2.99847,0 2.84456,-0.14302 2.37302,2.20483 -0.30109,1.49934 -0.30109,1.49934 -3.04271,1.49934 -1.50786,0 -2.74158,0.081 -2.74158,0.17993 0,0.099 -1.32284,6.37951 -2.93963,13.95677 -3.96578,18.58595 -3.94917,19.2008 0.51888,19.2008 3.05154,0 5.86369,-2.30629 7.49109,-6.14356 0.60452,-1.42546 4.45466,-2.91607 4.45466,-1.72466 0,0.36862 -2.08579,5.15414 -2.85279,6.5453 -6.28992,11.40842 -22.10046,13.92304 -25.07639,3.98832 -0.46905,-1.5659 -0.46905,-1.5659 -1.46058,-0.32971 -6.72171,8.38033 -20.14633,8.57604 -22.6165,0.32971 -0.46906,-1.5659 -0.46906,-1.5659 -1.46058,-0.32971 -3.44721,4.29782 -9.84935,6.95725 -15.2789,6.34681 z m 65.12595,-0.67886 c 2.21985,-3.81008 22.49686,-39.42003 22.60086,-39.69106 0.16135,-0.42047 -7.99549,-0.37466 -8.9726,0.0504 -0.65228,0.28375 -0.81701,0.9598 -0.35756,1.46748 1.71776,1.89809 -0.57398,5.83761 -3.6404,6.25791 -7.52647,1.03162 -5.64674,-9.56915 2.1939,-12.37257 1.94868,-0.69676 26.456,-1.16839 26.456,-0.50914 0,0.15702 -4.92823,8.79205 -10.95163,19.18895 -10.95163,18.90346 -10.95163,18.90346 -9.72344,19.10153 2.21494,0.35721 8.08112,0.26085 8.84368,-0.14527 0.77866,-0.41471 1.17419,-1.156 0.70096,-1.31374 -3.42855,-1.14286 -0.16476,-5.80243 3.88376,-5.54464 6.51666,0.41495 3.98571,10.50602 -3.27803,13.06975 -1.79416,0.63325 -28.11113,1.05083 -27.7555,0.44041 z m -35.31592,-50.04994 c -7.59392,-2.46503 -5.93702,-13.91308 2.01369,-13.91308 7.38687,0 10.01731,9.25477 3.71588,13.07383 -1.56583,0.949 -4.20195,1.33512 -5.72957,0.83925 z"/>
  </g>
</svg>